# This file uses centimeters as units for non-parametric coordinates.

mtllib GrotBoom_02.mtl
g default
v -0.096405 1.028652 11.158984
v 0.112197 1.028652 11.158984
v 0.117663 1.322465 12.601418
v 0.286634 1.322465 12.601418
v 0.117663 1.491435 12.601418
v 0.286634 1.491435 12.601418
v -0.096405 1.237254 11.158984
v 0.112197 1.237254 11.158984
v 0.580414 1.449065 14.074639
v 0.728181 1.449065 14.074639
v 0.728181 1.596832 14.074639
v 0.580414 1.596832 14.074639
v 1.172554 2.442342 14.924068
v 1.240381 2.442342 14.924068
v 1.240381 2.510169 14.924068
v 1.172554 2.510169 14.924068
v 1.172285 2.443212 14.929276
v 1.247380 2.443212 14.929276
v 1.247380 2.517216 14.929276
v 1.172285 2.517216 14.929276
v 1.198650 2.461336 15.016317
v 1.261243 2.461336 15.016317
v 1.261243 2.523019 15.016317
v 1.198650 2.523019 15.016317
v 0.868559 1.963082 14.577993
v 0.987364 1.963082 14.577993
v 0.987364 2.081888 14.577993
v 0.868559 2.081888 14.577993
v 1.171832 2.443859 14.966470
v 1.265885 2.443859 14.966470
v 1.265885 2.536544 14.966470
v 1.171832 2.536544 14.966470
v 1.137274 2.466242 14.517488
v 1.196952 2.474194 14.994827
v 1.319835 2.455352 14.530046
v 1.177645 2.354976 14.082444
v 1.267490 2.147214 13.685789
v 1.326321 2.346107 14.092670
v 1.250390 2.329790 14.092717
v 1.226962 2.440045 14.528927
v 1.345567 2.587981 14.487679
v 1.208245 2.474580 14.934625
v 1.507096 2.548655 14.564924
v 1.553631 2.577891 14.087828
v 1.788000 2.458960 13.714333
v 1.685179 2.545865 14.150736
v 1.615120 2.540936 14.117580
v 1.422046 2.547376 14.524601
v 0.771049 2.389655 15.040353
v 1.237914 2.476689 14.963288
v 0.774228 2.403850 14.857615
v 0.354904 2.220263 15.002889
v -0.012368 1.968245 14.902041
v 0.357493 2.231823 14.854068
v 0.364374 2.206268 14.927085
v 0.780813 2.376978 14.947590
v 1.390989 2.656216 15.294086
v 1.190838 2.471822 14.897331
v 1.213575 2.689961 15.325555
v 1.469700 2.759944 15.725734
v 1.476774 2.777112 16.182053
v 1.325215 2.787425 15.751361
v 1.394524 2.753159 15.744015
v 1.299348 2.652563 15.315289
v 0.952825 2.666391 15.260017
v 1.241446 2.435721 14.951851
v 0.840509 2.644306 15.116832
v 0.591710 2.782881 15.503533
v 0.190292 2.794823 15.721003
v 0.500240 2.764895 15.386924
v 0.543041 2.753362 15.450696
v 0.893732 2.634823 15.193892
v 0.947559 2.807405 14.806003
v 1.206106 2.425299 14.942480
v 1.066191 2.794016 14.666891
v 0.710841 3.096662 14.553874
v 0.465207 3.299342 14.226526
v 0.807455 3.085759 14.440583
v 0.747824 3.074895 14.489142
v 0.995551 2.784395 14.728360
v 1.367587 2.813385 14.698634
v 1.209223 2.431280 14.944386
v 1.495897 2.799997 14.828873
v 1.639275 3.102643 14.484650
v 1.986672 3.305323 14.268298
v 1.743770 3.091739 14.590714
v 1.700560 3.080876 14.527102
v 1.440779 2.790376 14.753173
v 1.623694 2.670538 15.080757
v 1.185130 2.460238 14.929865
v 1.518528 2.655208 15.261778
v 2.013049 2.769270 15.337910
v 2.381189 2.764271 15.650482
v 1.927402 2.756784 15.485332
v 1.974901 2.742121 15.412567
v 1.575787 2.641967 15.172214
vt 0.055660 0.928285
vt 0.081301 0.928393
vt 0.080928 0.934280
vt 0.054183 0.933457
vt 0.078334 0.947058
vt 0.051918 0.946079
vt 0.245931 0.071318
vt 0.274713 0.071308
vt 0.238682 0.381041
vt 0.213228 0.380841
vt 0.171640 0.666532
vt 0.144066 0.667750
vt 0.192237 0.071597
vt 0.173782 0.380836
vt 0.127605 0.816447
vt 0.107505 0.816926
vt 0.123775 0.667291
vt 0.096737 0.928760
vt 0.086333 0.816834
vt 0.095120 0.934078
vt 0.071385 0.950631
vt 0.070254 0.969363
vt 0.056375 0.969589
vt 0.058207 0.950588
vt 0.077555 0.975999
vt 0.048055 0.976176
vt 0.144600 0.071585
vt 0.144446 0.028620
vt 0.192398 0.028699
vt 0.139461 0.381174
vt 0.104404 0.380727
vt 0.094195 0.669090
vt 0.065163 0.669639
vt 0.058176 0.816511
vt 0.037114 0.816582
vt 0.032349 0.929370
vt 0.022131 0.929273
vt 0.033019 0.935082
vt 0.022355 0.934969
vt 0.032800 0.947429
vt 0.022517 0.947264
vt 0.090456 0.947296
vt 0.107553 0.071484
vt 0.315405 0.183703
vt 0.346515 0.030773
vt 0.346515 0.183703
vt 0.377624 0.183703
vt 0.346515 0.333163
vt 0.321179 0.333163
vt 0.371850 0.333163
vt 0.346515 0.478980
vt 0.315405 0.183703
vt 0.346515 0.030773
vt 0.346515 0.183703
vt 0.377624 0.183703
vt 0.346515 0.333163
vt 0.321179 0.333163
vt 0.371850 0.333163
vt 0.346515 0.478980
vt 0.315405 0.183703
vt 0.346515 0.030773
vt 0.346515 0.183703
vt 0.377624 0.183703
vt 0.346515 0.333163
vt 0.321179 0.333163
vt 0.371850 0.333163
vt 0.346515 0.478980
vt 0.315405 0.183703
vt 0.346515 0.030773
vt 0.346515 0.183703
vt 0.377624 0.183703
vt 0.346515 0.333163
vt 0.321179 0.333163
vt 0.371850 0.333163
vt 0.346515 0.478980
vt 0.315405 0.183703
vt 0.346515 0.030773
vt 0.346515 0.183703
vt 0.377624 0.183703
vt 0.346515 0.333163
vt 0.321179 0.333163
vt 0.371850 0.333163
vt 0.346515 0.478980
vt 0.315405 0.183703
vt 0.346515 0.030773
vt 0.346515 0.183703
vt 0.377624 0.183703
vt 0.346515 0.333163
vt 0.321179 0.333163
vt 0.371850 0.333163
vt 0.346515 0.478980
vt 0.315405 0.183703
vt 0.346515 0.030773
vt 0.346515 0.183703
vt 0.377624 0.183703
vt 0.346515 0.333163
vt 0.321179 0.333163
vt 0.371850 0.333163
vt 0.346515 0.478980
vt 0.315405 0.183703
vt 0.346515 0.030773
vt 0.346515 0.183703
vt 0.377624 0.183703
vt 0.346515 0.333163
vt 0.321179 0.333163
vt 0.371850 0.333163
vt 0.346515 0.478980
vn 0.000000 -0.979879 0.199594
vn 0.000000 -0.979879 0.199594
vn 0.000000 -0.990057 0.140665
vn 0.000000 -0.987741 0.156102
vn 0.000000 0.000000 1.000000
vn 0.000000 0.000000 1.000000
vn 0.000000 0.000000 1.000000
vn 0.000000 0.000000 1.000000
vn 0.000000 0.990924 -0.134422
vn 0.000000 0.992708 -0.120547
vn 0.000000 0.984826 -0.173543
vn 0.000000 0.984826 -0.173543
vn 0.000000 0.000000 -1.000000
vn 0.000000 0.000000 -1.000000
vn 0.000000 0.000000 -1.000000
vn 0.000000 0.000000 -1.000000
vn 0.992767 0.000000 -0.120057
vn 0.992767 0.000000 -0.120057
vn 0.978547 0.000000 -0.206025
vn 0.981365 0.000000 -0.192151
vn -0.989166 0.000000 0.146800
vn -0.989166 0.000000 0.146800
vn -0.977089 0.000000 0.212831
vn -0.974249 0.000000 0.225475
vn 0.000000 -0.938676 0.344802
vn 0.000000 -0.974487 0.224443
vn 0.939357 0.000000 -0.342941
vn 0.950482 0.000000 -0.310781
vn 0.000000 0.978994 -0.203888
vn 0.000000 0.946511 -0.322672
vn -0.944667 0.000000 0.328031
vn -0.930934 0.000000 0.365187
vn 0.000000 -0.673156 0.739500
vn 0.000000 -0.646491 0.762922
vn 0.000000 -0.585427 0.810725
vn 0.000000 -0.585427 0.810725
vn 0.878625 0.000000 -0.477513
vn 0.843142 0.000000 -0.537690
vn 0.807256 0.000000 -0.590201
vn 0.807256 0.000000 -0.590201
vn 0.000000 0.677805 -0.735242
vn 0.000000 0.699914 -0.714227
vn 0.000000 0.628508 -0.777803
vn 0.000000 0.628508 -0.777803
vn -0.802284 0.000000 0.596943
vn -0.851893 0.000000 0.523717
vn -0.751304 0.000000 0.659956
vn -0.751304 0.000000 0.659956
vn 0.000000 -0.986324 0.164817
vn 0.000000 -0.986324 0.164817
vn 0.000000 -0.986324 0.164817
vn 0.000000 -0.986324 0.164817
vn 0.596887 0.000000 -0.802325
vn 0.596887 0.000000 -0.802325
vn 0.596887 0.000000 -0.802325
vn 0.596887 0.000000 -0.802325
vn 0.000000 0.594283 -0.804256
vn 0.000000 0.594283 -0.804256
vn 0.000000 0.594283 -0.804256
vn 0.000000 0.594283 -0.804256
vn -0.998668 0.000000 -0.051588
vn -0.998668 0.000000 -0.051588
vn -0.998668 0.000000 -0.051588
vn -0.998668 0.000000 -0.051588
vn 0.000000 -0.985354 0.170524
vn 0.000000 -0.975542 0.219812
vn 0.000000 -0.943675 0.330873
vn 0.000000 -0.943675 0.330873
vn 0.979187 0.000000 -0.202960
vn 0.988927 0.000000 -0.148401
vn 0.995693 0.000000 0.092717
vn 0.995692 0.000000 0.092717
vn 0.000000 0.999426 -0.033876
vn 0.000000 0.988651 -0.150230
vn 0.000000 0.965107 0.261857
vn 0.000000 0.965107 0.261857
vn -0.952529 0.000000 0.304447
vn -0.967346 0.000000 0.253459
vn -0.880638 0.000000 0.473790
vn -0.880638 0.000000 0.473790
vn 0.000000 -0.999849 0.017379
vn 0.000000 -0.999849 0.017379
vn 0.895319 0.000000 -0.445426
vn 0.895319 0.000000 -0.445426
vn 0.000000 0.887339 -0.461118
vn 0.000000 0.887339 -0.461118
vn -0.999926 0.000000 -0.012191
vn -0.999926 0.000000 -0.012191
vn 0.309963 0.937365 -0.158965
vn 0.064123 0.995565 -0.068841
vn 0.070599 0.982089 -0.174693
vn -0.172266 0.966131 -0.192135
vn 0.076852 0.953913 -0.290076
vn 0.329512 0.908835 -0.255815
vn -0.181660 0.939325 -0.290977
vn 0.082173 0.910576 -0.405092
vn 0.381414 0.894693 0.232482
vn 0.122372 0.964260 0.235006
vn 0.170430 0.975351 0.140160
vn -0.045261 0.998570 0.028440
vn 0.221592 0.974588 0.032791
vn 0.437258 0.887333 0.146441
vn -0.015019 0.997445 -0.069847
vn 0.271207 0.959295 -0.078743
vn -0.310128 0.934319 -0.175698
vn -0.214932 0.973978 0.071918
vn -0.317943 0.945673 0.067925
vn -0.318521 0.896826 0.306998
vn -0.428244 0.901494 0.062573
vn -0.402854 0.894250 -0.195002
vn -0.411755 0.854507 0.316664
vn -0.535949 0.842384 0.056111
vn -0.114342 0.958309 -0.261857
vn 0.098075 0.903902 -0.416344
vn 0.122261 0.939953 -0.318654
vn 0.354298 0.869174 -0.344978
vn 0.147518 0.967428 -0.205723
vn -0.107296 0.980974 -0.161793
vn 0.389470 0.886488 -0.249903
vn 0.171445 0.981445 -0.085863
vn 0.030383 0.882210 -0.469875
vn 0.269921 0.896987 -0.350082
vn 0.189088 0.937264 -0.292885
vn 0.327068 0.940545 -0.091655
vn 0.096645 0.969475 -0.225339
vn -0.058124 0.904502 -0.422490
vn 0.256367 0.966339 -0.021568
vn -0.000403 0.988361 -0.152126
vn 0.700725 0.680892 0.213002
vn 0.615538 0.637342 0.463582
vn 0.564003 0.715590 0.412107
vn 0.387374 0.716251 0.580454
vn 0.499113 0.793008 0.349321
vn 0.652666 0.743275 0.146863
vn 0.320498 0.780760 0.536371
vn 0.424574 0.861274 0.279186
vn -0.272900 0.680889 0.679644
vn -0.515166 0.637344 0.573059
vn -0.459416 0.715591 0.526181
vn -0.611832 0.716254 0.335622
vn -0.391243 0.793008 0.466976
vn -0.202847 0.743274 0.637493
vn -0.562118 0.780762 0.272825
vn -0.314917 0.861273 0.398793
vn -0.366642 0.923573 0.112186
vn -0.352823 0.927105 -0.126463
vn -0.270985 0.959565 -0.076168
vn -0.153235 0.954682 -0.255148
vn -0.177260 0.983968 -0.019649
vn -0.291739 0.940880 0.172145
vn -0.065389 0.973876 -0.217462
vn -0.077391 0.996222 0.039412
s 1
g Tak_BoomGrot_2
usemtl blinn3SG
f 1/7/1 2/8/2 4/9/3 3/10/4
s off
f 21/21/5 22/22/6 23/23/7 24/24/8
s 2
f 5/14/9 6/30/10 8/27/11 7/13/12
s off
f 7/13/13 8/27/14 2/28/15 1/29/16
s 3
f 2/43/17 8/27/18 6/30/19 4/31/20
s 4
f 7/13/21 1/7/22 3/10/23 5/14/24
s 1
f 3/10/4 4/9/3 10/11/25 9/12/26
s 3
f 4/31/20 6/30/19 11/32/27 10/33/28
s 2
f 6/30/10 5/14/9 12/17/29 11/32/30
s 4
f 5/14/24 3/10/23 9/12/31 12/17/32
s 1
f 25/16/33 26/15/34 14/18/35 13/2/36
s 3
f 26/35/37 27/34/38 15/36/39 14/37/40
s 2
f 27/34/41 28/19/42 16/1/43 15/36/44
s 4
f 28/19/45 25/16/46 13/2/47 16/1/48
s off
f 13/2/49 14/18/50 18/20/51 17/3/52
f 14/37/53 15/36/54 19/38/55 18/39/56
f 15/36/57 16/1/58 20/4/59 19/38/60
f 16/1/61 13/2/62 17/3/63 20/4/64
s 5
f 29/5/65 30/25/66 22/22/67 21/21/68
s 6
f 30/25/69 31/26/70 23/23/71 22/22/72
s 7
f 31/26/73 32/6/74 24/24/75 23/23/76
s 8
f 32/6/77 29/5/78 21/21/79 24/24/80
s 1
f 9/12/26 10/11/25 26/15/34 25/16/33
s 3
f 10/33/28 11/32/27 27/34/38 26/35/37
s 2
f 11/32/30 12/17/29 28/19/42 27/34/41
s 4
f 12/17/32 9/12/31 25/16/46 28/19/45
s 5
f 17/3/81 18/20/82 30/42/66 29/5/65
s 6
f 18/39/83 19/38/84 31/40/70 30/41/69
s 7
f 19/38/85 20/4/86 32/6/74 31/40/73
s 8
f 20/4/87 17/3/88 29/5/78 32/6/77
s 9
f 33/44/89 34/45/90 40/46/91
f 34/45/90 35/47/92 40/46/91
f 39/48/93 36/49/94 33/44/89 40/46/91
f 35/47/92 38/50/95 39/48/93 40/46/91
f 39/48/93 38/50/95 37/51/96
f 36/49/94 39/48/93 37/51/96
s 10
f 41/52/97 42/53/98 48/54/99
f 42/53/98 43/55/100 48/54/99
f 47/56/101 44/57/102 41/52/97 48/54/99
f 43/55/100 46/58/103 47/56/101 48/54/99
f 47/56/101 46/58/103 45/59/104
f 44/57/102 47/56/101 45/59/104
s 11
f 49/60/105 50/61/106 56/62/107
f 50/61/106 51/63/108 56/62/107
f 55/64/109 52/65/110 49/60/105 56/62/107
f 51/63/108 54/66/111 55/64/109 56/62/107
f 55/64/109 54/66/111 53/67/112
f 52/65/110 55/64/109 53/67/112
s 12
f 57/68/113 58/69/114 64/70/115
f 58/69/114 59/71/116 64/70/115
f 63/72/117 60/73/118 57/68/113 64/70/115
f 59/71/116 62/74/119 63/72/117 64/70/115
f 63/72/117 62/74/119 61/75/120
f 60/73/118 63/72/117 61/75/120
s 13
f 65/76/121 66/77/122 72/78/123
f 66/77/122 67/79/124 72/78/123
f 71/80/125 68/81/126 65/76/121 72/78/123
f 67/79/124 70/82/127 71/80/125 72/78/123
f 71/80/125 70/82/127 69/83/128
f 68/81/126 71/80/125 69/83/128
s 14
f 73/84/129 74/85/130 80/86/131
f 74/85/130 75/87/132 80/86/131
f 79/88/133 76/89/134 73/84/129 80/86/131
f 75/87/132 78/90/135 79/88/133 80/86/131
f 79/88/133 78/90/135 77/91/136
f 76/89/134 79/88/133 77/91/136
s 15
f 81/92/137 82/93/138 88/94/139
f 82/93/138 83/95/140 88/94/139
f 87/96/141 84/97/142 81/92/137 88/94/139
f 83/95/140 86/98/143 87/96/141 88/94/139
f 87/96/141 86/98/143 85/99/144
f 84/97/142 87/96/141 85/99/144
s 16
f 89/100/145 90/101/146 96/102/147
f 90/101/146 91/103/148 96/102/147
f 95/104/149 92/105/150 89/100/145 96/102/147
f 91/103/148 94/106/151 95/104/149 96/102/147
f 95/104/149 94/106/151 93/107/152
f 92/105/150 95/104/149 93/107/152
